<svg xmlns="http://www.w3.org/2000/svg" viewBox="0 0 64 64" fill="none">
  <path d="M32 4C18 4 8 16 8 28c0 8 4 15 10 20l2-4c-4-4-8-10-8-16 0-10 8-20 20-20s20 10 20 20c0 6-4 12-8 16l2 4c6-5 10-12 10-20C56 16 46 4 32 4z" fill="#8B0000"/>
  <path d="M32 14c-8 0-14 6-14 14 0 5 3 10 7 13l3-3c-3-2-6-6-6-10 0-6 4-10 10-10s10 4 10 10c0 4-3 8-6 10l3 3c4-3 7-8 7-13 0-8-6-14-14-14z" fill="#DC143C"/>
  <circle cx="32" cy="28" r="6" fill="#FF4444"/>
  <path d="M26 42l-4 14h4l4-10 4 10h4l-4-14c-2 1-3 2-4 2s-2-1-4-2z" fill="#8B0000"/>
</svg>
